<?xml version="1.0" encoding="UTF-8" standalone="no"?> <svg id="Layer_1" data-name="Layer 1" xmlns="http://www.w3.org/2000/svg" viewBox="0 0 24 24"><title>Search, Research, mobile, phone, smartphone</title><path d="M17.88,0H6.12A2.12,2.12,0,0,0,4,2.12V21.88A2.12,2.12,0,0,0,6.12,24H17.88A2.12,2.12,0,0,0,20,21.88V2.12A2.12,2.12,0,0,0,17.88,0ZM14,2V3H10V2Zm4,19.88a.12.12,0,0,1-.12.12H6.12A.12.12,0,0,1,6,21.88V2.12A.12.12,0,0,1,6.12,2H8V3.31A1.69,1.69,0,0,0,9.69,5h4.62A1.69,1.69,0,0,0,16,3.31V2h1.88a.12.12,0,0,1,.12.12Z"/><path d="M16.35,16.59l-2.14-2.14a3.49,3.49,0,1,0-3.06,1.84,3.44,3.44,0,0,0,1.65-.43L14.94,18Zm-6.7-3.8a1.5,1.5,0,1,1,1.5,1.5A1.5,1.5,0,0,1,9.65,12.79Z"/></svg>